<?xml version="1.0" encoding="UTF-8"?>
<svg xmlns:xlink="http://www.w3.org/1999/xlink" id="Biblio_Nexus_ALL_Artboards" data-name="Biblio Nexus ALL Artboards"
     xmlns="http://www.w3.org/2000/svg" viewBox="0 0 131.73 130.32">
    <defs>
        <style>
            .cls-1 {
            fill: none;
            }

            .cls-1, .cls-2, .cls-3, .cls-4, .cls-5, .cls-6, .cls-7, .cls-8, .cls-9, .cls-10, .cls-11, .cls-12, .cls-13, .cls-14 {
            stroke-width: 0px;
            }

            .cls-2 {
            fill: url(#linear-gradient);
            }

            .cls-3 {
            fill: url(#linear-gradient-11);
            }

            .cls-4 {
            fill: url(#linear-gradient-12);
            }

            .cls-5 {
            fill: url(#linear-gradient-10);
            }

            .cls-6 {
            fill: url(#linear-gradient-4);
            }

            .cls-7 {
            fill: url(#linear-gradient-2);
            }

            .cls-8 {
            fill: url(#linear-gradient-3);
            }

            .cls-9 {
            fill: url(#linear-gradient-8);
            }

            .cls-10 {
            fill: url(#linear-gradient-9);
            }

            .cls-11 {
            fill: url(#linear-gradient-7);
            }

            .cls-12 {
            fill: url(#linear-gradient-5);
            }

            .cls-13 {
            fill: url(#linear-gradient-6);
            }

            .active {
            fill: url(#BibleWell_Gradient_Water);
            }

            .inactive {
            fill: #BABABA;
            }
        </style>
        <radialGradient id="BibleWell_Gradient_Water" data-name="BibleWell_Gradient Water" cx="107.41" cy="17.58" fx="107.41" fy="17.58"
                        r="94.99" gradientUnits="userSpaceOnUse">
            <stop offset=".14" stop-color="#7acdef"/>
            <stop offset=".19" stop-color="#72c9ed"/>
            <stop offset=".51" stop-color="#3eb0e1"/>
            <stop offset=".75" stop-color="#1ea0d9"/>
            <stop offset=".88" stop-color="#129bd7"/>
        </radialGradient>
        <linearGradient id="linear-gradient" x1="10733.47" y1="-129.64" x2="10765.71" y2="-129.64"
                        gradientTransform="translate(2017.64 10634.08) rotate(-99.57)" gradientUnits="userSpaceOnUse">
            <stop offset="0" stop-color="#4d5a69"/>
            <stop offset="1" stop-color="#8c9aa9"/>
        </linearGradient>
        <linearGradient id="linear-gradient-2" x1="10717.9" y1="-204.69" x2="10764.9" y2="-204.69" xlink:href="#linear-gradient"/>
        <linearGradient id="linear-gradient-3" x1="10698.98" y1="-166.04" x2="10710.1" y2="-166.04" xlink:href="#linear-gradient"/>
        <linearGradient id="linear-gradient-4" x1="10807.11" y1="-158.16" x2="10811.29" y2="-158.16" xlink:href="#linear-gradient"/>
        <linearGradient id="linear-gradient-5" x1="10755.55" y1="-113.44" x2="10789.95" y2="-113.44" xlink:href="#linear-gradient"/>
        <linearGradient id="linear-gradient-6" x1="10683.34" y1="-141.29" x2="10722.76" y2="-141.29" xlink:href="#linear-gradient"/>
        <linearGradient id="linear-gradient-7" x1="10681.49" y1="-188" x2="10715.51" y2="-188" xlink:href="#linear-gradient"/>
        <linearGradient id="linear-gradient-8" x1="10706.34" y1="-218.51" x2="10769.86" y2="-218.51" xlink:href="#linear-gradient"/>
        <linearGradient id="linear-gradient-9" x1="10766.82" y1="-142.07" x2="10807.26" y2="-142.07" xlink:href="#linear-gradient"/>
        <linearGradient id="linear-gradient-10" x1="10704.44" y1="-115.79" x2="10752.76" y2="-115.79" xlink:href="#linear-gradient"/>
        <linearGradient id="linear-gradient-11" x1="10765.91" y1="-193.54" x2="10811.44" y2="-193.54" xlink:href="#linear-gradient"/>
        <linearGradient id="linear-gradient-12" x1="10783.8" y1="-165.3" x2="10789.8" y2="-165.3" xlink:href="#linear-gradient"/>
    </defs>
    <rect class="cls-1" x="-2.27" y="-3" width="137" height="137"/>
    <g>
        <path class="active"
              d="m99.9,74.57c-2.34,6.91-8.46,12.07-14.37,17.05-1.27,1.07-2.58,2.18-3.84,3.29-2.08,1.84-3.97,2.78-5.76,2.89-.71.04-1.62.14-2.68.25-3.32.35-8.35.88-11.56.1-1.71-.42-3.87-1.14-5.78-1.77-1.69-.56-3.15-1.05-4.19-1.3-5.85-1.42-11.08-5.45-15.53-11.96-7.26-10.62-7.02-25.97.57-37.34,5.97-8.95,16.79-15.42,26.31-15.74,4.43-.15,12.04.59,14.85,3.25.66.62.86,2.75,1.01,4.46.2,2.16.39,4.2,1.38,5.52,2.6,3.47,6.35,5.21,9.67,6.74,4.24,1.96,7.6,3.51,8.25,7.84.1.64.25,1.5.42,2.5.67,3.83,2.06,11.8,1.24,14.22Z"/>
        <path class="cls-2"
              d="m105.59,63.98c3.09-8.56,4.03-15.63-2.42-23-.09-.11-.22-.17-.36-.18-1.28-.07-3.19-.4-5.04-.58-2.38-.23-3.95,2.4-2.65,4.41,4.96,7.69,7.73,17.4,7.61,26.73,0,.61.86.73,1.01.13.61-2.49,1.22-4.98,1.84-7.46,0-.02,0-.03.01-.05Z"/>
        <path class="cls-7"
              d="m27.55,63.54c.18-2.1.62-4.15,1.11-6.19.25-1.04,1.02-2.82.71-3.91-.88-3.11-11.32,4.64-12.5,5.39,7.07,9.44,13.85,47.38,26.91,38.01-.7.5-9.26-10.73-10.15-11.66-7.31-7.63-6.32-18.95-6.09-21.63Z"/>
        <path class="cls-8"
              d="m78.02,110.61c1.63.83,3.57-.3,3.64-2.13.56-14.93-2.03-6.48-15.48-6.39-.44.01-.6.59-.23.82,3.85,1.83,8.12,5.68,12.07,7.7Z"/>
        <path class="cls-6" d="m62.81,4.03c1.64-.57,7.21-2.27,6.68-3.87-4.42.18-15.54-1.68-6.68,3.87Z"/>
        <path class="cls-12" d="m106.01,14.15c-1.15,7.32-4.46,34.58,10.8,33,24.4-2.53-3.12-26.69-10.8-33Z"/>
        <path class="cls-13"
              d="m83.04,100.74c0,5.78-.02,11.54-.02,17.29,0,4.89,4.98,8.23,9.48,6.32,9.44-4.02,18.26-11.28,24.01-19.09.95-1.29.98-3.45.1-4.79-21.06-31.65-12.39-12.35-31.62-2.85-1.07.53-1.94,1.94-1.95,3.13Z"/>
        <path class="cls-11"
              d="m81.38,114.13c-13.37-7.89-36.51-19.41-46.4-10.76-3.76,3.28-7.27,8.61-9.26,13.04,11.4,9.98,62.22,26.63,55.66-2.28Z"/>
        <path class="cls-9"
              d="m33.63,97.39c-13.64-9.37-10.74-38.79-27.86-45.5-1.73-.68-3.69.24-4.26,2-5.61,17.14,5.21,44.71,18.81,57.91,1.38,1.34,3.53,1.45,5.04.26,4.66-3.69,11.94-12.15,8.27-14.67Z"/>
        <path class="cls-10"
              d="m72.63,2.64c-3.88,2.21-8.73,2.98-8.68,7.52.01,1.29,0,2.58-.04,3.87-.24,5.67,4.18,9.54,7.95,13.66,10.53.78,16.73,10.1,26.23,11.08,2.48.26,4.7-1.59,4.84-4.08.37-6.39-.15-13.34-.36-19.86-.07-2.04-1.17-3.91-2.93-4.94-8.07-4.72-18.4-11.06-27-7.26Z"/>
        <path class="cls-5"
              d="m111.42,53c-6.52,23.29-9.67,26.41,6.56,44.22,1.55,1.7,4.3,1.48,5.54-.45,7.74-12.05,9.93-29.55,6.89-44.64-.33-1.64-1.79-2.82-3.47-2.79-4.11.06-8.61.54-12.65,1.14-1.37.2-2.5,1.19-2.87,2.53Z"/>
        <path class="cls-3"
              d="m11.71,53.27c14.3,3.05,23.43-13.81,35.21-21.12,2.44-1.52,4.73-3.27,6.73-5.33,7.75-8.02,13.35-18.28.87-25.62-.04-.02-.08-.03-.13-.03C34.85,2.79,2,28.29,4.76,46c.56,3.62,3.37,6.5,6.95,7.27Z"/>
        <path class="cls-4" d="m64.81,24.08c-.8-.57-1.49-2.66-2.58-2.39-1.16,2-6.12,4.76-5.19,6.47,3.23-1.67,13.42.96,7.77-4.08Z"/>
    </g>
</svg>