<?xml version="1.0" encoding="UTF-8" standalone="no"?>
<svg
   id="Biblio_Nexus_ALL_Artboards"
   data-name="Biblio Nexus ALL Artboards"
   viewBox="0 0 508.16 502.73"
   version="1.1"
   sodipodi:docname="Bible Well_Tint_676767_ICON_outline.svg"
   inkscape:version="1.3 (0e150ed6c4, 2023-07-21)"
   xmlns:inkscape="http://www.inkscape.org/namespaces/inkscape"
   xmlns:sodipodi="http://sodipodi.sourceforge.net/DTD/sodipodi-0.dtd"
   xmlns="http://www.w3.org/2000/svg"
   xmlns:svg="http://www.w3.org/2000/svg">
  <sodipodi:namedview
     id="namedview13"
     pagecolor="#ffffff"
     bordercolor="#000000"
     borderopacity="0.25"
     inkscape:showpageshadow="2"
     inkscape:pageopacity="0.0"
     inkscape:pagecheckerboard="0"
     inkscape:deskcolor="#d1d1d1"
     showgrid="false"
     inkscape:zoom="2.8284271"
     inkscape:cx="284.43371"
     inkscape:cy="242.18407"
     inkscape:window-width="3200"
     inkscape:window-height="1711"
     inkscape:window-x="-9"
     inkscape:window-y="-9"
     inkscape:window-maximized="1"
     inkscape:current-layer="Biblio_Nexus_ALL_Artboards" />
  <defs
     id="defs1">
    <style
       id="style1">&#10;      .cls-1 {&#10;        fill: #777171;&#10;      }&#10;&#10;      .cls-1, .cls-2 {&#10;        stroke-width: 0px;&#10;      }&#10;&#10;      .cls-2 {&#10;        fill: #231f20;&#10;      }&#10;    </style>
  </defs>
  <path
     class="cls-2"
     d="m398.28,247.1c11.22-31.07,14.63-56.75-8.77-83.5-.34-.38-.82-.61-1.32-.64-4.63-.27-11.57-1.46-18.29-2.1-8.62-.82-14.33,8.73-9.63,16.01,18.01,27.92,28.07,63.17,27.62,97.02-.03,2.22,3.14,2.64,3.67.48,2.22-9.03,4.41-18.06,6.67-27.08.01-.06.03-.12.05-.18Z"
     id="path1"
     style="stroke:#000000;stroke-opacity:0.60000002;fill:#000000;fill-opacity:0.60000002" />
  <path
     class="cls-2"
     d="m115,245.5c.65-7.61,2.25-15.05,4.03-22.46.91-3.79,3.71-10.25,2.59-14.2-3.19-11.29-41.1,16.83-45.37,19.56,25.66,34.27,50.26,172.01,97.7,137.96-2.53,1.81-33.62-38.95-36.85-42.33-26.53-27.71-22.93-68.78-22.1-78.53Z"
     id="path2"
     style="stroke:#000000;stroke-opacity:0.60000002;fill:#000000;fill-opacity:0.60000002" />
  <path
     class="cls-2"
     d="m298.22,416.36c5.91,3.02,12.96-1.09,13.2-7.73,2.04-54.21-7.35-23.52-56.2-23.21-1.6.05-2.18,2.13-.82,2.98,13.97,6.63,29.47,20.62,43.82,27.95Z"
     id="path3"
     style="stroke:#000000;stroke-opacity:0.60000002;fill:#000000;fill-opacity:0.60000002" />
  <path
     class="cls-2"
     d="m243.01,29.47c5.96-2.07,26.17-8.23,24.25-14.06-16.06.65-56.42-6.1-24.25,14.06Z"
     id="path4"
     style="stroke:#000000;stroke-opacity:0.60000002;fill:#000000;fill-opacity:0.60000002" />
  <path
     class="cls-2"
     d="M 399.83,66.19 C 395.67,92.78 383.63,191.7 439.02,185.97 527.61,176.8 427.68,89.08 399.83,66.19 Z"
     id="path5"
     style="display:none;stroke:#000000;stroke-opacity:1" />
  <path
     class="cls-2"
     d="m 408.52647,87.262589 c -1.48675,9.503012 -2.03083,31.974641 1.09772,52.413071 3.06419,20.01799 9.93302,36.71455 29.32165,34.70883 41.22223,-4.26694 21.96459,-31.74441 -0.4421,-56.35479 -11.65872,-12.80536 -23.23439,-25.225117 -29.97727,-30.767111 z"
     id="path22"
     style="display:inline;fill:none;stroke:#000000;stroke-width:23.116;stroke-dasharray:none;stroke-opacity:0.6"
     inkscape:label="path5o"
     sodipodi:nodetypes="cscsc" />
  <path
     class="cls-2"
     d="m 316.43,380.54 c -0.03,21 -0.06,41.88 -0.08,62.76 -0.02,17.74 18.08,29.89 34.4,22.94 34.28,-14.61 66.27,-40.95 87.17,-69.32 3.45,-4.69 3.57,-12.54 0.35,-17.39 -76.44,-114.88 -44.99,-44.83 -114.77,-10.36 -3.88,1.92 -7.06,7.04 -7.06,11.37 z"
     id="path6"
     style="display:none;stroke:#000000;stroke-opacity:1" />
  <path
     class="cls-2"
     d="m 327.93935,382.77202 c -0.0245,17.08897 -0.43095,38.82999 -0.44722,55.82131 -0.0163,14.4361 9.07388,20.8735 22.35445,15.21786 27.8957,-11.88905 59.29899,-36.89823 76.30658,-59.98461 2.80747,-3.81654 1.93019,-8.25469 -0.69012,-12.20143 -62.20384,-93.48479 -28.64016,-36.12733 -85.42436,-8.07701 -3.15739,1.56242 -12.09117,6.02528 -12.09117,9.54886 z"
     id="path21"
     style="display:inline;fill:none;stroke:#000000;stroke-width:23.788;stroke-dasharray:none;stroke-opacity:0.6"
     inkscape:label="path6o"
     sodipodi:nodetypes="cccccccc" />
  <path
     class="cls-2"
     d="M 310.39,429.15 C 261.84,400.51 177.87,358.67 141.95,390.08 128.31,402 115.56,421.32 108.33,437.42 149.7,473.65 334.2,534.09 310.4,429.15 Z"
     id="path7"
     style="display:none;stroke:#000000;stroke-opacity:1" />
  <path
     class="cls-2"
     d="m 289.29832,428.73209 c -42.47246,-23.46489 -106.6982,-55.62328 -138.1217,-29.88891 -11.93253,9.7661 -21.68966,22.48268 -28.01461,35.67347 21.21066,17.3966 85.46145,40.56218 130.19655,42.04133 17.30658,0.57224 33.26526,-2.87814 41.54839,-11.56128 6.8388,-7.16904 8.60859,-13.2901 4.71102,-29.38487 z"
     id="path20"
     style="display:inline;fill:none;stroke:#000000;stroke-width:23.347;stroke-dasharray:none;stroke-opacity:0.6"
     inkscape:label="path7o"
     sodipodi:nodetypes="cccsscc" />
  <path
     class="cls-2"
     d="M 137.07,368.38 C 87.55,334.38 98.1,227.58 35.95,203.2 c -6.26,-2.46 -13.39,0.88 -15.48,7.28 -20.34,62.21 18.91,162.32 68.3,210.2 5,4.85 12.82,5.27 18.28,0.94 16.93,-13.4 43.33,-44.11 30.02,-53.25 z"
     id="path8"
     style="display:none;stroke:#000000;stroke-opacity:1" />
  <path
     class="cls-2"
     d="M 123.08842,371.08442 C 83.208034,342.40567 83.938622,236.6203 33.886807,216.05595 c -5.041422,-2.07498 -4.629035,0.71413 -6.312195,6.11247 -16.380594,52.47368 23.007135,142.57254 62.782825,182.95895 4.026696,4.09092 6.435359,9.74851 10.832513,6.09618 13.63438,-11.30279 33.45297,-31.13646 22.73389,-38.84597 z"
     id="path19"
     style="display:inline;fill:none;stroke:#000000;stroke-width:24.128;stroke-dasharray:none;stroke-opacity:0.6"
     inkscape:label="path8o"
     sodipodi:nodetypes="ccccccc" />
  <path
     class="cls-2"
     d="m 278.65,24.4 c -14.07,8.02 -31.68,10.83 -31.52,27.31 0.04,4.68 0.04,9.36 -0.16,14.04 -0.85,20.59 15.16,34.63 28.84,49.59 38.22,2.84 60.73,36.67 95.22,40.24 9.02,0.93 17.06,-5.76 17.58,-14.81 1.33,-23.21 -0.54,-48.42 -1.31,-72.08 C 387.06,61.28 383.06,54.51 376.67,50.77 347.37,33.63 309.89,10.62 278.65,24.4 Z"
     id="path9"
     style="display:none;stroke:#000000;stroke-opacity:1" />
  <path
     class="cls-2"
     d="m 285.01797,34.564382 c -11.7935,6.547693 -26.55423,8.841835 -26.42012,22.296446 0.0336,3.820849 0.38715,5.87393 0.21944,9.694778 -0.71247,16.810101 10.61072,24.861601 22.07732,37.075264 32.03607,2.31862 62.22267,36.35687 91.13225,39.2715 7.56057,0.75927 4.7239,-5.94252 5.15976,-13.33113 1.1148,-18.94912 -0.45263,-39.531079 -1.09805,-58.84759 -0.20117,-6.049676 -4.21128,-9.933567 -9.56739,-12.98698 C 341.96187,43.743222 311.20339,23.314107 285.01797,34.564382 Z"
     id="path18"
     style="display:inline;fill:none;stroke:#000000;stroke-width:22.861;stroke-dasharray:none;stroke-opacity:0.6"
     inkscape:label="path9o"
     sodipodi:nodetypes="ccccccccc" />
  <path
     class="cls-2"
     d="m 419.45,207.21 c -23.68,84.55 -35.11,95.86 23.82,160.51 5.62,6.17 15.6,5.37 20.11,-1.65 28.11,-43.75 36.04,-107.27 25,-162.04 -1.2,-5.96 -6.51,-10.23 -12.59,-10.14 -14.92,0.21 -31.27,1.95 -45.92,4.13 -4.98,0.74 -9.06,4.34 -10.42,9.18 z"
     id="path10"
     style="display:none;stroke:#000000;stroke-opacity:1" />
  <path
     class="cls-2"
     d="m 423.49014,236.01117 c -17.59785,66.56372 -20.74987,66.51213 23.04413,117.40917 4.17651,4.85746 6.01094,7.84426 9.36256,2.31762 20.89003,-34.44308 30.75341,-99.18622 22.549,-142.30501 -0.89179,-4.69214 -0.55314,-7.11312 -5.07151,-7.04226 -11.08784,0.16532 -29.40773,0.55236 -40.29491,2.26862 -3.7009,0.58257 -13.52833,42.58656 -14.53902,46.39694 z"
     id="path17"
     style="display:inline;fill:none;stroke:#000000;stroke-width:23.675;stroke-dasharray:none;stroke-opacity:0.6"
     inkscape:label="path10o"
     sodipodi:nodetypes="cccccccc" />
  <path
     class="cls-2"
     d="m 57.51,208.2 c 51.91,11.08 85.06,-50.15 127.81,-76.68 8.86,-5.5 17.17,-11.87 24.42,-19.36 28.14,-29.11 48.47,-66.37 3.15,-93.02 -0.14,-0.08 -0.3,-0.12 -0.46,-0.11 -70.93,5.92 -190.18,98.48 -180.15,162.78 2.05,13.13 12.23,23.61 25.23,26.39 z"
     id="path11"
     style="display:none;stroke:#000000;stroke-opacity:1" />
  <path
     class="cls-2"
     d="m 75.850208,196.76159 c 44.953602,-7.49215 63.741842,-48.33941 100.501472,-70.35999 7.6185,-4.56513 18.15662,-12.83779 24.3907,-19.05469 24.19687,-24.162049 47.5098,-56.256706 8.54029,-78.376892 -0.12037,-0.0664 -0.31156,-0.06386 -0.44916,-0.05555 C 147.8426,33.828206 34.382054,127.33612 43.006598,180.70679 c 1.762741,10.89824 17.556689,18.60259 28.815432,16.72616 z"
     id="path16"
     style="display:inline;fill:none;stroke:#000000;stroke-width:20;stroke-dasharray:none;stroke-opacity:0.6"
     inkscape:label="path11o"
     sodipodi:nodetypes="scccccss" />
  <path
     class="cls-2"
     d="m 250.26,102.24 c -2.92,-2.08 -5.41,-9.64 -9.37,-8.69 -4.22,7.24 -22.2,17.29 -18.83,23.49 11.73,-6.07 48.71,3.5 28.2,-14.8 z"
     id="path12"
     style="display:inline;stroke:#000000;stroke-opacity:0.60000002;fill:#000000;fill-opacity:0.60000002" />
  <path
     class="cls-1"
     d="m 376.09,285.99 c -8.46,24.96 -30.54,43.58 -51.9,61.58 -4.58,3.87 -9.33,7.87 -13.88,11.88 -7.53,6.63 -14.33,10.05 -20.79,10.44 -2.56,0.15 -5.85,0.5 -9.66,0.9 -12,1.27 -30.16,3.18 -41.73,0.36 -6.17,-1.5 -13.99,-4.1 -20.89,-6.4 -6.09,-2.03 -11.36,-3.79 -15.13,-4.7 -21.14,-5.14 -40.02,-19.68 -56.09,-43.19 -26.21,-38.34 -25.36,-93.8 2.06,-134.85 21.58,-32.31 60.65,-55.68 95.03,-56.83 15.99,-0.54 43.47,2.14 53.65,11.72 2.38,2.23 3.09,9.93 3.66,16.11 0.72,7.8 1.4,15.18 4.97,19.95 9.38,12.54 22.95,18.8 34.92,24.32 15.33,7.09 27.44,12.67 29.8,28.31 0.35,2.31 0.9,5.42 1.52,9.02 2.41,13.83 7.44,42.6 4.47,51.36 z"
     id="path13"
     style="display:none;stroke:#000000;stroke-opacity:1" />
  <path
     class="cls-1"
     d="m 365.5473,285.13436 c -7.62097,23.31406 -26.45053,36.81712 -45.69215,53.63014 -4.12578,3.6148 -11.23313,9.11879 -15.33188,12.86436 -6.78321,6.19281 -12.90882,7.97306 -18.72814,8.33734 -2.30613,0.14011 -4.20917,1.17414 -7.64132,1.54776 -10.8099,1.18625 -26.46177,2.26319 -36.8843,-0.37085 -5.5581,-1.40108 -12.60254,-2.4154 -18.81824,-4.56374 -5.48602,-1.89614 -18.71866,-7.07562 -22.11476,-7.92561 -19.04344,-4.80105 -33.57614,-18.7358 -48.0524,-40.69547 -23.61061,-35.81174 -21.07714,-80.89704 3.62347,-119.24009 19.4398,-30.17937 57.1099,-53.4225 88.08026,-54.49666 14.4042,-0.50439 35.62333,1.29176 44.79373,10.24004 2.14396,2.08294 2.78355,10.33585 3.29702,16.10832 0.64859,7.28564 2.67536,14.17898 5.8913,18.63442 8.44974,11.71309 22.4417,18.9745 33.22458,24.1305 13.80964,6.62247 26.83995,10.42027 28.9659,25.02894 0.31529,-0.17688 0.45718,5.24343 1.0157,8.77875 2.17099,12.91801 7.05569,38.73017 4.38025,46.91251 z"
     id="path25"
     style="display:inline;fill:none;stroke:#000000;stroke-width:19.9301;stroke-dasharray:none;stroke-opacity:0.6"
     inkscape:label="path13o"
     sodipodi:nodetypes="ccccccscccccccccccc" />
</svg>
