<?xml version="1.0" encoding="UTF-8" standalone="no"?>
<svg
   id="Biblio_Nexus_ALL_Artboards"
   data-name="Biblio Nexus ALL Artboards"
   viewBox="0 0 508 507.99999"
   version="1.1"
   sodipodi:docname="Bible Well_Tint_676767_ICON_outline.svg"
   inkscape:version="1.3 (0e150ed6c4, 2023-07-21)"
   inkscape:export-filename="Bible Well_Tint_Black_ICON_outline_24px.svg"
   inkscape:export-xdpi="96"
   inkscape:export-ydpi="96"
   width="508"
   height="508"
   xmlns:inkscape="http://www.inkscape.org/namespaces/inkscape"
   xmlns:sodipodi="http://sodipodi.sourceforge.net/DTD/sodipodi-0.dtd"
   xmlns="http://www.w3.org/2000/svg"
   xmlns:svg="http://www.w3.org/2000/svg">
  <sodipodi:namedview
     id="namedview13"
     pagecolor="#ffffff"
     bordercolor="#000000"
     borderopacity="0.25"
     inkscape:showpageshadow="2"
     inkscape:pageopacity="0.0"
     inkscape:pagecheckerboard="0"
     inkscape:deskcolor="#d1d1d1"
     inkscape:zoom="1.7007141"
     inkscape:cx="292.23019"
     inkscape:cy="258.71485"
     inkscape:window-width="2081"
     inkscape:window-height="1193"
     inkscape:window-x="1028"
     inkscape:window-y="92"
     inkscape:window-maximized="0"
     inkscape:current-layer="Biblio_Nexus_ALL_Artboards"
     inkscape:clip-to-page="false"
     labelstyle="default"
     shape-rendering="crispEdges" />
  <defs
     id="defs1">
    <style
       id="style1">&#10;      .cls-1 {&#10;        fill: #777171;&#10;      }&#10;&#10;      .cls-1, .cls-2 {&#10;        stroke-width: 0px;&#10;      }&#10;&#10;      .cls-2 {&#10;        fill: #231f20;&#10;      }&#10;    </style>
  </defs>
  <path
     class="cls-2"
     d="m 394.61091,245.39621 c 9.37112,-27.64656 12.21921,-50.49702 -7.32485,-74.29958 -0.28396,-0.33813 -0.68487,-0.54279 -1.10247,-0.56948 -3.86705,-0.24025 -9.66345,-1.29913 -15.2761,-1.86861 -7.19956,-0.72965 -11.96864,7.76809 -8.04313,14.24595 15.04224,24.84363 23.44451,56.20963 23.06866,86.32987 -0.025,1.97539 2.62257,2.34912 3.06524,0.42711 1.85418,-8.03503 3.68331,-16.07006 5.57089,-24.09619 0.008,-0.0534 0.025,-0.10678 0.0418,-0.16017 z"
     id="path1"
     style="fill:none;stroke:#696969;stroke-width:14;stroke-dasharray:none;stroke-opacity:1"
     inkscape:export-filename="Bible Well_Tint_676767_ICON_outline1.svg"
     inkscape:export-xdpi="4.9603944"
     inkscape:export-ydpi="4.9603944" />
  <path
     class="cls-2"
     d="m 129.53536,240.38298 c 0.58366,-6.82595 2.02039,-13.4994 3.61876,-20.14593 0.81713,-3.39954 3.33143,-9.19397 2.3257,-12.73702 -2.86448,-10.12677 -37.842341,17.75064 -41.676619,20.19937 23.041579,30.73917 39.946189,160.16438 82.545239,129.62252 -0.72769,0.52006 6.33846,-4.20969 2.01317,-9.40531 -0.29115,-0.34974 -6.20127,-6.95031 -6.50068,-7.31402 -9.13849,-11.101 -20.57192,-27.78525 -22.48073,-29.78053 -23.8228,-24.85506 -20.59014,-61.69362 -19.84484,-70.43908 z"
     id="path2"
     style="fill:none;stroke:#696969;stroke-width:15;stroke-dasharray:none;stroke-opacity:1"
     sodipodi:nodetypes="cccccsscc" />
  <path
     class="cls-2"
     d="m 298.60739,404.49576 c 5.69997,2.69376 12.49944,-0.97226 12.73091,-6.89497 1.96751,-48.35395 -7.0888,-20.97925 -54.20284,-20.70273 -1.54314,0.0446 -2.10253,1.8999 -0.79086,2.65808 13.47355,5.91379 28.42274,18.39252 42.26279,24.9307 z"
     id="path3"
     style="fill:none;stroke:#696969;stroke-width:12;stroke-dasharray:none;stroke-opacity:1" />
  <path
     class="cls-2"
     d="m 228.90009,37.329381 c 5.79362,-2.622106 25.43945,-10.425088 23.57304,-17.810053 -15.61167,0.823366 -54.845,-7.726979 -23.57304,17.810053 z"
     id="path4"
     style="fill:none;stroke:#696969;stroke-width:10;stroke-dasharray:none;stroke-opacity:1" />
  <path
     class="cls-2"
     d="m 410.99598,89.115449 c -3.2286,20.485871 -12.57287,96.697311 30.4155,92.282711 68.755,-7.06489 -8.80102,-74.64745 -30.4155,-92.282711 z"
     id="path5"
     style="fill:none;stroke:#696969;stroke-width:20;stroke-dasharray:none;stroke-opacity:1" />
  <path
     class="cls-2"
     d="m 335.88023,375.0866 c -0.0225,17.10626 -0.0451,34.11478 -0.0601,51.12329 -0.015,14.45071 13.59916,24.34789 25.87451,18.68656 25.78426,-11.90109 49.84603,-33.35723 65.56629,-56.46697 2.59499,-3.8204 2.68525,-10.21488 0.26327,-14.16561 -57.49556,-93.57939 -33.83995,-36.5178 -86.32608,-8.43909 -2.91841,1.56399 -5.31028,5.73467 -5.31028,9.26182 z"
     id="path6"
     style="fill:none;stroke:#696969;stroke-width:20;stroke-dasharray:none;stroke-opacity:1" />
  <path
     class="cls-2"
     d="M 295.86774,427.51451 C 253.81405,404.90688 181.07979,371.87955 149.9661,396.67373 c -11.81487,9.40931 -22.85884,24.65999 -29.12142,37.3689 35.83442,28.59896 195.64712,76.30866 175.03172,-6.52812 z"
     id="path7"
     style="fill:none;stroke:#696969;stroke-width:20;stroke-dasharray:none;stroke-opacity:1" />
  <path
     class="cls-2"
     d="M 124.15421,364.33719 C 86.374936,333.97089 94.423629,238.58502 47.008814,216.81061 c -4.775812,-2.19709 -10.215356,0.78594 -11.809836,6.50196 -15.517576,55.56137 14.426615,144.97224 52.106708,187.73512 3.814545,4.33166 9.780492,4.70676 13.945984,0.83953 12.91604,-11.96789 33.05686,-39.39579 22.90254,-47.55897 z"
     id="path8"
     style="fill:none;stroke:#696969;stroke-width:20;stroke-dasharray:none;stroke-opacity:1" />
  <path
     class="cls-2"
     d="m 284.64327,32.761034 c -12.15575,6.962638 -27.36988,9.402166 -27.23164,23.709432 0.0346,4.062987 0.0346,8.125972 -0.13824,12.188958 -0.73434,17.875402 13.09746,30.064359 24.91627,43.052026 33.02008,2.46557 52.46753,31.8354 82.2651,34.93473 7.79281,0.80739 14.73895,-5.00059 15.1882,-12.85745 1.14905,-20.14998 -0.46653,-42.036267 -1.13177,-62.576917 -0.20734,-6.43306 -3.66314,-12.310501 -9.18376,-15.557416 C 344.01377,40.774145 311.63299,20.797799 284.64327,32.761034 Z"
     id="path9"
     style="fill:none;stroke:#696969;stroke-width:20;stroke-dasharray:none;stroke-opacity:1" />
  <path
     class="cls-2"
     d="m 424.18335,218.32462 c -16.43496,65.19898 -24.36789,73.92046 16.53215,123.77397 3.90054,4.75787 10.8271,4.14097 13.95724,-1.27236 19.50959,-33.7369 25.01336,-82.71905 17.35111,-124.9538 -0.83285,-4.59593 -4.51822,-7.88865 -8.73803,-7.81924 -10.35513,0.16193 -21.70276,1.50369 -31.87052,3.18475 -3.45633,0.57065 -6.28804,3.3467 -7.23195,7.07897 z"
     id="path10"
     style="fill:none;stroke:#696969;stroke-width:20;stroke-dasharray:none;stroke-opacity:1" />
  <path
     class="cls-2"
     d="m 72.005017,190.78681 c 41.021123,9.03717 67.217423,-40.9038 100.999963,-62.54244 7.0015,-4.48596 13.56836,-9.6815 19.29756,-15.79058 22.23723,-23.742962 38.30271,-54.133302 2.48926,-75.869818 -0.11064,-0.06525 -0.23708,-0.09788 -0.36351,-0.08972 -56.05141,4.828524 -150.286971,80.323158 -142.36091,132.768088 1.619982,10.70923 9.664578,19.25702 19.937637,21.52446 z"
     id="path11"
     style="fill:none;stroke:#696969;stroke-width:19.8;stroke-dasharray:none;stroke-opacity:1" />
  <path
     class="cls-2"
     d="m 245.10996,107.20413 c -3.30062,-2.68968 -6.1152,-12.46566 -10.59139,-11.237196 -4.77007,9.362186 -25.09376,22.358036 -21.28448,30.375386 13.259,-7.84924 55.05935,4.52592 31.87587,-19.13819 z"
     id="path12"
     style="fill:none;stroke:#696969;stroke-width:10;stroke-dasharray:none;stroke-opacity:1" />
  <path
     class="cls-1"
     d="m 362.11384,278.90846 c -6.99704,21.06722 -25.2588,36.78324 -42.92504,51.97596 -3.788,3.26642 -7.71661,6.64258 -11.47978,10.02717 -6.22785,5.59599 -11.85196,8.48261 -17.19482,8.81178 -2.11732,0.1266 -4.83839,0.42203 -7.98954,0.75963 -9.92486,1.07194 -24.94449,2.68406 -34.51372,0.30387 -5.10303,-1.26607 -11.57074,-3.46057 -17.27754,-5.40186 -5.03686,-1.7134 -9.39553,-3.1989 -12.51361,-3.96699 -17.4843,-4.33835 -33.09943,-16.6107 -46.39048,-36.45406 -21.67755,-32.36048 -20.97453,-79.17092 1.70378,-113.81875 17.84823,-27.27091 50.16192,-46.99612 78.59666,-47.96678 13.22491,-0.45578 35.95284,1.80624 44.37243,9.89214 1.96844,1.88221 2.55568,8.38132 3.02709,13.5975 0.59549,6.58349 1.1579,12.8125 4.11056,16.83859 7.75794,10.58425 18.98131,15.86794 28.88136,20.52703 12.679,5.98425 22.69485,10.69399 24.64676,23.89476 0.28947,1.94975 0.74435,4.5747 1.25714,7.61324 1.99324,11.67307 6.15343,35.95609 3.697,43.34987 z"
     id="path13"
     style="fill:none;stroke:#696969;stroke-width:20;stroke-dasharray:none;stroke-opacity:1"
     inkscape:export-filename="Bible Well_Tint_676767_ICON_outline.png"
     inkscape:export-xdpi="4.9603944"
     inkscape:export-ydpi="4.9603944" />
</svg>
