<svg viewBox="0 0 1136.13 513.73" xmlns="http://www.w3.org/2000/svg"><g fill="#4d5a69"><path d="m384.72 252.69c10.99-30.42 14.32-55.56-8.59-81.74-.33-.37-.8-.6-1.3-.63-4.53-.26-11.33-1.43-17.9-2.06-8.44-.81-14.03 8.54-9.43 15.67 17.63 27.33 27.48 61.84 27.04 94.97-.03 2.18 3.07 2.58 3.59.47 2.17-8.84 4.32-17.68 6.53-26.51.01-.06.03-.12.05-.17z"/><path d="m107.41 251.12c.63-7.45 2.21-14.74 3.94-21.99.89-3.71 3.63-10.04 2.54-13.9-3.12-11.05-40.24 16.48-44.41 19.15 25.12 33.55 49.2 168.39 95.64 135.06-2.47 1.78-32.91-38.13-36.08-41.44-25.98-27.13-22.45-67.33-21.63-76.88z"/><path d="m286.77 418.39c5.79 2.96 12.68-1.07 12.93-7.56 2-53.07-7.2-23.03-55.02-22.72-1.57.05-2.13 2.09-.8 2.92 13.68 6.49 28.85 20.19 42.89 27.36z"/><path d="m232.72 39.64c5.83-2.02 25.62-8.06 23.74-13.76-15.72.64-55.23-5.98-23.74 13.76z"/><path d="m386.23 75.59c-4.07 26.03-15.86 122.87 38.37 117.26 86.72-8.98-11.1-94.85-38.37-117.26z"/><path d="m304.59 383.32c-.03 20.56-.05 41-.08 61.44-.02 17.37 17.7 29.26 33.67 22.45 33.56-14.3 64.87-40.09 85.33-67.86 3.38-4.59 3.5-12.28.34-17.02-74.83-112.46-44.04-43.89-112.35-10.14-3.8 1.88-6.91 6.89-6.92 11.13z"/><path d="m298.68 430.9c-47.53-28.04-129.73-68.99-164.9-38.25-13.35 11.67-25.83 30.58-32.91 46.34 40.5 35.47 221.11 94.64 197.81-8.09z"/><path d="m129.01 371.41c-48.48-33.28-38.15-137.83-98.99-161.7-6.13-2.41-13.11.86-15.15 7.12-19.92 60.9 18.51 158.9 66.86 205.78 4.9 4.75 12.55 5.16 17.9.92 16.57-13.12 42.41-43.18 29.39-52.12z"/><path d="m267.61 34.68c-13.78 7.85-31.01 10.6-30.86 26.74.04 4.58.04 9.16-.15 13.74-.84 20.16 14.84 33.9 28.24 48.55 37.41 2.78 59.45 35.9 93.22 39.39 8.83.91 16.7-5.64 17.21-14.5 1.3-22.72-.53-47.4-1.28-70.56-.24-7.25-4.15-13.88-10.41-17.55-28.68-16.78-65.37-39.3-95.96-25.82z"/><path d="m405.45 213.64c-23.18 82.77-34.37 93.84 23.32 157.13 5.5 6.04 15.27 5.26 19.68-1.61 27.52-42.82 35.28-105.01 24.47-158.63-1.18-5.83-6.37-10.01-12.32-9.93-14.61.21-30.61 1.91-44.95 4.04-4.88.72-8.87 4.25-10.2 8.99z"/><path d="m51.12 214.61c50.81 10.85 83.26-49.09 125.12-75.07 8.68-5.38 16.81-11.62 23.91-18.96 27.55-28.5 47.45-64.98 3.08-91.06-.13-.08-.29-.12-.45-.1-69.44 5.79-186.18 96.41-176.36 159.36 2.01 12.86 11.97 23.12 24.7 25.83z"/><path d="m239.82 110.88c-2.86-2.04-5.3-9.44-9.17-8.5-4.13 7.09-21.74 16.93-18.43 22.99 11.49-5.94 47.69 3.43 27.61-14.49z"/></g><g fill="#14a2dc"><path d="m363 290.76c-8.28 24.43-29.9 42.66-50.81 60.29-4.49 3.79-9.13 7.71-13.58 11.63-7.37 6.5-14.03 9.84-20.35 10.22-2.5.15-5.73.49-9.46.88-11.75 1.24-29.52 3.11-40.86.35-6.04-1.47-13.7-4.02-20.45-6.27-5.96-1.99-11.12-3.71-14.81-4.6-20.7-5.04-39.17-19.26-54.91-42.28-25.65-37.54-24.82-91.83 2.02-132.01 21.12-31.63 59.38-54.51 93.03-55.63 15.65-.53 42.56 2.1 52.52 11.48 2.33 2.19 3.03 9.72 3.58 15.77.71 7.64 1.37 14.86 4.87 19.53 9.19 12.27 22.47 18.41 34.18 23.81 15.01 6.94 26.87 12.41 29.17 27.72.35 2.27.88 5.31 1.49 8.83 2.36 13.54 7.28 41.71 4.37 50.28z"/><path d="m547.59 248.23v-152.44h84.01c26.23 0 43.85 15.98 43.85 39.95 0 13.93-6.15 26.64-15.57 31.76l-1.64 1.02c.41.2 1.43.41 2.25.82 11.47 4.92 19.26 18.85 19.26 35.04 0 26.23-18.24 43.85-45.69 43.85h-86.46zm47.12-114.94v19.46h23.97c6.35 0 10.45-4.1 10.45-10.04s-4.1-9.43-10.24-9.43h-24.18zm0 56.55v20.08h26.02c5.94 0 10.04-3.89 10.04-9.83s-4.1-10.24-10.45-10.24h-25.61z"/><path d="m691.01 248.23v-152.44h49.38v152.44z"/><path d="m754.73 248.23v-152.44h84.01c26.23 0 43.85 15.98 43.85 39.95 0 13.93-6.15 26.64-15.57 31.76l-1.64 1.02c.41.2 1.43.41 2.25.82 11.47 4.92 19.26 18.85 19.26 35.04 0 26.23-18.24 43.85-45.69 43.85h-86.46zm47.12-114.94v19.46h23.97c6.35 0 10.45-4.1 10.45-10.04s-4.1-9.43-10.24-9.43h-24.18zm0 56.55v20.08h26.02c5.94 0 10.04-3.89 10.04-9.83s-4.1-10.24-10.45-10.24h-25.61z"/><path d="m898.15 248.23v-152.44h48.76v111.05h59.62v41.39h-108.39z"/><path d="m1016.78 248.23v-152.44h111.67v41.18h-64.13v14.75h57.16v40.36h-57.16v14.75h64.54v41.39h-112.08z"/><path d="m668.07 431.74-7.6-32.49-9.07-40.93-8.65 40.93-7.38 32.49h-58.02l-29.96-156.97h53.17l6.33 56.54 4.22 42.41 9.07-42.41 12.87-56.54h39.66l13.29 56.54 8.65 42.41 4.43-42.41 6.96-56.54h51.48l-31.86 156.97h-57.6z"/><path d="m765.97 431.74v-156.97h114.98v42.41h-66.04v15.19h58.86v41.56h-58.86v15.19h66.46v42.62h-115.41z"/><path d="m895.09 431.74v-156.97h50.21v114.35h61.4v42.62z"/><path d="m1017.25 431.74v-156.97h50.21v114.35h61.4v42.62z"/></g></svg>