<svg width="24" height="24" viewBox="0 0 24 24" fill="none" xmlns="http://www.w3.org/2000/svg">
<path fill-rule="evenodd" clip-rule="evenodd" d="M6.49996 6C6.49996 3.51472 8.51468 1.5 11 1.5C13.4852 1.5 15.5 3.51472 15.5 6C15.5 8.48528 13.4852 10.5 11 10.5C8.51468 10.5 6.49996 8.48528 6.49996 6Z" fill="#00A3E0"/>
<path fill-rule="evenodd" clip-rule="evenodd" d="M2.75121 20.1053C2.82855 15.6156 6.49195 12 11 12C15.5081 12 19.1716 15.6157 19.2487 20.1056C19.2538 20.4034 19.0823 20.676 18.8116 20.8002C16.4327 21.8918 13.7865 22.5 11.0003 22.5C8.21382 22.5 5.5674 21.8917 3.18829 20.7999C2.91762 20.6757 2.74608 20.4031 2.75121 20.1053Z" fill="#00A3E0"/>
<path d="M22.5 18.625H12.5M12.5 18.625L15 16.125M12.5 18.625L15 21.125M12.5 12.375H22.5M22.5 12.375L20 9.875M22.5 12.375L20 14.875" stroke="white" stroke-width="3" stroke-linecap="round" stroke-linejoin="round"/>
<path d="M22.5 18.625H12.5M12.5 18.625L15 16.125M12.5 18.625L15 21.125M12.5 12.375H22.5M22.5 12.375L20 9.875M22.5 12.375L20 14.875" stroke="#00A3E0" stroke-width="2" stroke-linecap="round" stroke-linejoin="round"/>
</svg>
